<?xml version="1.0" standalone="no"?><!DOCTYPE svg PUBLIC "-//W3C//DTD SVG 1.1//EN" "http://www.w3.org/Graphics/SVG/1.1/DTD/svg11.dtd"><svg t="1550246335928" class="icon" style="" viewBox="0 0 1024 1024" version="1.1" xmlns="http://www.w3.org/2000/svg" p-id="5129" xmlns:xlink="http://www.w3.org/1999/xlink" width="32" height="32"><defs><style type="text/css"></style></defs><path d="M512 737.49c-16.238 0-29.412-13.174-29.412-29.412V541.412H315.922c-16.238 0-29.412-13.174-29.412-29.412s13.174-29.412 29.412-29.412h166.667V315.922c0-16.238 13.174-29.412 29.412-29.412s29.412 13.174 29.412 29.412v166.667H708.08c16.238 0 29.412 13.174 29.412 29.412s-13.174 29.412-29.412 29.412H541.412V708.08c0 16.236-13.174 29.41-29.412 29.41z" p-id="5130"></path><path d="M512 1012c-276.142 0-500-223.858-500-500S235.858 12 512 12s500 223.858 500 500-223.858 500-500 500z m0-58.824c243.655 0 441.176-197.521 441.176-441.176S755.655 70.824 512 70.824 70.824 268.345 70.824 512 268.345 953.176 512 953.176z" p-id="5131"></path></svg>