<?xml version="1.0" standalone="no"?><!DOCTYPE svg PUBLIC "-//W3C//DTD SVG 1.1//EN" "http://www.w3.org/Graphics/SVG/1.1/DTD/svg11.dtd"><svg t="1550067444074" class="icon" style="" viewBox="0 0 1024 1024" version="1.1" xmlns="http://www.w3.org/2000/svg" p-id="6278" xmlns:xlink="http://www.w3.org/1999/xlink" width="16" height="16"><defs><style type="text/css"></style></defs><path d="M0 0h1024v1024H0z" fill="#E8E8E8" p-id="6279"></path><path d="M780.8 801.28h-35.84c-6.4-92.16-66.56-168.96-148.48-202.24-25.6 12.8-55.04 20.48-85.76 20.48-30.72 0-60.16-7.68-85.76-20.48-81.92 32-140.8 110.08-148.48 202.24h-35.84c6.4-98.56 65.28-183.04 147.2-225.28-46.08-37.12-75.52-93.44-75.52-157.44 0-110.08 88.32-199.68 198.4-199.68s198.4 89.6 198.4 199.68c0 64-29.44 120.32-75.52 157.44 83.2 43.52 140.8 128 147.2 225.28z m-107.52-381.44C673.28 328.96 601.6 256 512 256s-162.56 72.96-162.56 163.84c0 90.88 72.96 163.84 162.56 163.84 89.6 0 161.28-74.24 161.28-163.84z" fill="#BFBFBF" p-id="6280"></path></svg>