<?xml version="1.0" standalone="no"?><!DOCTYPE svg PUBLIC "-//W3C//DTD SVG 1.1//EN" "http://www.w3.org/Graphics/SVG/1.1/DTD/svg11.dtd"><svg t="1550426036666" class="icon" style="" viewBox="0 0 1098 1024" version="1.1" xmlns="http://www.w3.org/2000/svg" p-id="4692" xmlns:xlink="http://www.w3.org/1999/xlink" width="34.3125" height="32"><defs><style type="text/css"></style></defs><path d="M548.571429 384q67.986286 0 116.297143 48.274286t48.274286 116.297143-48.274286 116.297143-116.297143 48.274286-116.297143-48.274286-48.274286-116.297143 48.274286-116.297143 116.297143-48.274286zM950.857143 146.285714q60.562286 0 103.424 42.861714t42.861714 103.424l0 512q0 60.562286-42.861714 103.424t-103.424 42.861714l-804.571429 0q-60.562286 0-103.424-42.861714t-42.861714-103.424l0-512q0-60.562286 42.861714-103.424t103.424-42.861714l128 0 29.147429-77.714286q10.861714-28.013714 39.716571-48.274286t59.136-20.297143l292.571429 0q30.281143 0 59.136 20.297143t39.716571 48.274286l29.147429 77.714286 128 0zM548.571429 804.571429q105.728 0 180.845714-75.154286t75.154286-180.845714-75.154286-180.845714-180.845714-75.154286-180.845714 75.154286-75.154286 180.845714 75.154286 180.845714 180.845714 75.154286z" p-id="4693" fill="#000000"></path></svg>