<?xml version="1.0" standalone="no"?><!DOCTYPE svg PUBLIC "-//W3C//DTD SVG 1.1//EN" "http://www.w3.org/Graphics/SVG/1.1/DTD/svg11.dtd"><svg t="1551002937485" class="icon" style="" viewBox="0 0 1111 1024" version="1.1" xmlns="http://www.w3.org/2000/svg" p-id="10320" xmlns:xlink="http://www.w3.org/1999/xlink" width="34.71875" height="32"><defs><style type="text/css"></style></defs><path d="M1012.150857 0.702171H99.035429C44.470857 0.702171 0.029257 46.08 0.029257 101.814857v684.2368c0 55.793371 44.412343 101.1712 99.006172 101.1712h331.249371l125.308343 127.970743 125.308343-127.970743h331.249371c54.593829 0 98.976914-45.377829 98.976914-101.1712V101.814857c0-55.734857-44.383086-101.112686-98.976914-101.112686z m-2.048 744.067658c0 28.847543-22.674286 52.341029-50.439314 52.341028H639.561143l-83.880229 87.04-83.968-87.04H151.669029c-27.882057 0-50.497829-23.493486-50.497829-52.341028V146.519771c0-28.8768 22.615771-52.341029 50.497829-52.341028h808.023771c27.794286 0 50.410057 23.464229 50.410057 52.341028v598.250058z" p-id="10321" fill="#ffffff"></path><path d="M699.216457 426.218057c0 37.0688 29.549714 67.291429 65.799314 67.291429 36.278857 0 65.828571-30.222629 65.828572-67.291429 0-37.098057-29.549714-67.291429-65.828572-67.291428s-65.828571 30.193371-65.828571 67.291428zM489.764571 426.218057c0 37.0688 29.549714 67.291429 65.828572 67.291429s65.828571-30.222629 65.828571-67.291429c0-37.098057-29.549714-67.291429-65.828571-67.291428s-65.828571 30.193371-65.828572 67.291428zM280.3712 426.218057c0 37.0688 29.520457 67.291429 65.770057 67.291429 36.278857 0 65.799314-30.222629 65.799314-67.291429 0-37.098057-29.4912-67.291429-65.799314-67.291428-36.278857 0-65.770057 30.193371-65.770057 67.291428z" p-id="10322" fill="#ffffff"></path></svg>