<?xml version="1.0" standalone="no"?><!DOCTYPE svg PUBLIC "-//W3C//DTD SVG 1.1//EN" "http://www.w3.org/Graphics/SVG/1.1/DTD/svg11.dtd"><svg t="1550595622867" class="icon" style="" viewBox="0 0 1024 1024" version="1.1" xmlns="http://www.w3.org/2000/svg" p-id="6392" xmlns:xlink="http://www.w3.org/1999/xlink" width="32" height="32"><defs><style type="text/css"></style></defs><path d="M960 0H64a64 64 0 0 0-64 64v640a64 64 0 0 0 64 64h192v192a64 64 0 0 0 109.248 45.248L602.496 768H960a64 64 0 0 0 64-64V64a64 64 0 0 0-64-64z m-64 640H576a64 64 0 0 0-45.248 18.752L384 805.504V704a64 64 0 0 0-64-64H128V128h768z" p-id="6393" fill="#ffffff"></path></svg>