<?xml version="1.0" standalone="no"?><!DOCTYPE svg PUBLIC "-//W3C//DTD SVG 1.1//EN" "http://www.w3.org/Graphics/SVG/1.1/DTD/svg11.dtd"><svg t="1550238019183" class="icon" style="" viewBox="0 0 1024 1024" version="1.1" xmlns="http://www.w3.org/2000/svg" p-id="17508" xmlns:xlink="http://www.w3.org/1999/xlink" width="32" height="32"><defs><style type="text/css"></style></defs><path d="M666.58 696.454c-59.678-33.155-144.185-49.732-144.185-86.178 0-51.377 79.546-97.794 79.546-222.086 0-43.102-23.208-205.509-174.049-205.509-154.107 0-174 162.407-174 205.509 0 124.292 79.571 170.709 79.571 222.086 0 36.445-82.887 53.022-144.186 86.178-54.692 29.839-109.385 51.377-109.385 109.385 0 43.076 41.73 34.85 83.161 34.85h536.98c39.761 0 79.247 6.581 79.247-34.85-3.314-58.008-58.007-79.546-112.7-109.385" fill="#222222" p-id="17509"></path><path d="M944.107 432.421H714.368c-11.046 0-20-8.954-20-20s8.954-20 20-20h229.739c11.046 0 20 8.954 20 20s-8.954 20-20 20zM944.107 560.054H765.422c-11.046 0-20-8.954-20-20s8.954-20 20-20h178.686c11.046 0 20 8.954 20 20s-8.955 20-20.001 20zM944.107 687.687H816.475c-11.046 0-20-8.954-20-20s8.954-20 20-20h127.633c11.046 0 20 8.954 20 20s-8.955 20-20.001 20z" fill="#222222" p-id="17510"></path></svg>