<?xml version="1.0" standalone="no"?><!DOCTYPE svg PUBLIC "-//W3C//DTD SVG 1.1//EN" "http://www.w3.org/Graphics/SVG/1.1/DTD/svg11.dtd"><svg t="1551604974484" class="icon" style="" viewBox="0 0 1024 1024" version="1.1" xmlns="http://www.w3.org/2000/svg" p-id="4882" xmlns:xlink="http://www.w3.org/1999/xlink" width="16" height="16"><defs><style type="text/css"></style></defs><path d="M877.714286 1024H146.285714a146.285714 146.285714 0 0 1-146.285714-146.285714V146.285714a146.285714 146.285714 0 0 1 146.285714-146.285714h438.857143v109.714286H146.285714a36.571429 36.571429 0 0 0-36.571428 36.571428v731.428572a36.571429 36.571429 0 0 0 36.571428 36.571428h731.428572a36.571429 36.571429 0 0 0 36.571428-36.571428V438.857143h109.714286v438.857143a146.285714 146.285714 0 0 1-146.285714 146.285714z m-435.565715-364.580571a54.857143 54.857143 0 0 1-77.568-77.568L907.629714 38.802286a54.857143 54.857143 0 1 1 77.568 77.568z" p-id="4883"></path></svg>