<?xml version="1.0" standalone="no"?><!DOCTYPE svg PUBLIC "-//W3C//DTD SVG 1.1//EN" "http://www.w3.org/Graphics/SVG/1.1/DTD/svg11.dtd"><svg t="1550426261945" class="icon" style="" viewBox="0 0 1024 1024" version="1.1" xmlns="http://www.w3.org/2000/svg" p-id="11060" xmlns:xlink="http://www.w3.org/1999/xlink" width="32" height="32"><defs><style type="text/css"></style></defs><path d="M316.133034 707.141482l64.335365-190.733825L744.223292 150.407871l128.643353 128.643353L506.894236 642.833494zM996.034649 27.267244a87.605604 87.605604 0 0 1 26.610202 64.335365c0 25.131858-8.870067 46.59523-26.610202 64.335366l-93.163084 93.163084L774.228211 120.457705 867.391295 27.294621a87.605604 87.605604 0 0 1 64.335365-26.610202c25.104481-0.027377 46.540477 8.842691 64.307989 26.582825z" p-id="11061" fill="#000000"></path><path d="M71.521762 100.007272h503.513208l-70.987916 70.987916H71.521762v780.757566h780.757566V519.227462l70.987916-70.987915v503.513207c0 19.218479-7.035825 35.863544-21.080098 49.907817-14.044273 14.044273-30.689338 21.080098-49.907818 21.080098H71.521762c-19.218479 0-35.863544-7.008448-49.907817-21.080098-14.044273-14.044273-21.080098-30.689338-21.080098-49.907817V170.995188c0-19.218479 7.035825-35.863544 21.080098-49.907818 14.044273-14.044273 30.689338-21.080098 49.907817-21.080098z" p-id="11062" fill="#000000"></path></svg>