<?xml version="1.0" standalone="no"?><!DOCTYPE svg PUBLIC "-//W3C//DTD SVG 1.1//EN" "http://www.w3.org/Graphics/SVG/1.1/DTD/svg11.dtd"><svg t="1550424937157" class="icon" style="" viewBox="0 0 1024 1024" version="1.1" xmlns="http://www.w3.org/2000/svg" p-id="3267" xmlns:xlink="http://www.w3.org/1999/xlink" width="32" height="32"><defs><style type="text/css"></style></defs><path d="M663.2268393392869 55.10188965577095s-148.00924701291925-62.743050364172284-326.5856211263327 6.43518465273562l326.5856211263327 333.02080577906827V55.10188965577095z" fill="#F0765A" p-id="3268"></path><path d="M294.8125179701729 80.84262826671346s-144.79165468655142 67.569438853724-222.01387051937888 241.31942447758564h463.3332949969646l-241.31942447758564-241.31942447758564z" fill="#F0B25A" p-id="3269"></path><path d="M703.4467434188848 71.18985128761011v464.94209116014844l239.71062831440176-230.05785133529835c1.608796163183905-1.608796163183905-64.35184652735617-157.66202399202265-239.71062831440176-234.88423982485008z" fill="#6B59F0" p-id="3270" data-spm-anchor-id="a313x.7781069.0.i6" class="selected"></path><path d="M56.71068581895497 362.3819568238968s-64.35184652735617 149.61804317610316 4.826388489551714 326.5856211263327l329.8032134527004-326.5856211263327H56.71068581895497z" fill="#F1DC59" p-id="3271"></path><path d="M320.5532565811153 956.0277410387578v-466.5508873233323l-241.31942447758564 239.71062831440176s65.96064269054008 149.61804317610316 241.31942447758564 226.8402590089305z" fill="#B9F258" p-id="3272"></path><path d="M722.7522973770916 943.1573717332867s151.226839339287-59.52545803780448 228.44905517211438-233.27544366166615H487.86805755224145l234.88423982485008 233.27544366166615z" fill="#59E5F0" p-id="3273"></path><path d="M962.4629256914934 336.64121821295447L632.6597122387926 669.6620239920228h336.2383981054361c-1.608796163183905 0 62.743050364172284-154.44443166565486-6.43518465273562-333.02080577906827z" fill="#5A9EF0" p-id="3274"></path><path d="M359.16436449752905 968.8981103442292s152.83563550247095 62.743050364172284 331.41200961588436-6.43518465273562L359.16436449752905 632.6597122387926v336.2383981054361z" fill="#5DF15A" p-id="3275"></path></svg>