<?xml version="1.0" standalone="no"?><!DOCTYPE svg PUBLIC "-//W3C//DTD SVG 1.1//EN" "http://www.w3.org/Graphics/SVG/1.1/DTD/svg11.dtd"><svg t="1551687100890" class="icon" style="" viewBox="0 0 1024 1024" version="1.1" xmlns="http://www.w3.org/2000/svg" p-id="2376" data-spm-anchor-id="a313x.7781069.0.i8" xmlns:xlink="http://www.w3.org/1999/xlink" width="32" height="32"><defs><style type="text/css"></style></defs><path d="M1011.910608 953.6943l-235.059316-234.98618A438.816396 438.816396 0 1 0 0 438.816396a438.816396 438.816396 0 0 0 718.634984 338.034896l235.059316 235.059316a41.175605 41.175605 0 0 0 58.289444 0 41.468149 41.468149 0 0 0-0.073136-58.289444z m-434.428231-186.350696c-43.88164 18.649697-90.469314 28.011113-138.665981 28.011113a355.733825 355.733825 0 0 1-252.10002-104.438302 355.733825 355.733825 0 0 1-76.427189-390.839136 355.733825 355.733825 0 0 1 76.427189-113.360903 355.733825 355.733825 0 0 1 390.839137-76.427189c42.418918 17.918336 80.522809 43.662231 113.360902 76.427189a355.733825 355.733825 0 0 1 76.427189 390.839137 355.733825 355.733825 0 0 1-76.427189 113.360902c-32.838094 32.764958-70.868848 58.508853-113.360902 76.427189z" p-id="2377"></path></svg>