<?xml version="1.0" standalone="no"?><!DOCTYPE svg PUBLIC "-//W3C//DTD SVG 1.1//EN" "http://www.w3.org/Graphics/SVG/1.1/DTD/svg11.dtd"><svg t="1550306598137" class="icon" style="" viewBox="0 0 1024 1024" version="1.1" xmlns="http://www.w3.org/2000/svg" p-id="4293" xmlns:xlink="http://www.w3.org/1999/xlink" width="32" height="32"><defs><style type="text/css"></style></defs><path d="M596.48 237.677714l-47.140571 47.140572a328.009143 328.009143 0 0 1 0 465.371428l47.140571 47.140572a397.165714 397.165714 0 0 0 0-559.652572z m-92.269714 94.281143l-47.177143 47.177143a195.510857 195.510857 0 0 1 0 278.784l47.177143 47.140571c102.509714-104.521143 102.509714-270.592 0-373.101714zM411.940571 424.228571l-94.281142 92.233143 92.233142 92.269715c53.321143-49.225143 53.321143-133.266286 2.048-184.502858zM517.595429 5.668571C239.213714 5.668571 11.227429 233.654857 11.227429 512.036571s227.986286 506.404571 506.368 506.404572c278.418286 0 506.368-227.986286 506.368-506.404572C1026.011429 233.654857 797.988571 5.668571 517.595429 5.668571z m0 972.397715c-256.219429 0-464.018286-207.798857-464.018286-464.018286S261.376 50.029714 517.595429 50.029714 981.650286 257.828571 981.650286 514.048c0 256.256-207.835429 464.018286-464.054857 464.018286z" p-id="4294"></path></svg>